<svg width="36" height="40" viewBox="0 0 36 40" fill="none" xmlns="http://www.w3.org/2000/svg">
<path d="M10.0001 5C10.0001 3.67392 10.5269 2.40215 11.4646 1.46447C12.4023 0.526784 13.674 0 15.0001 0C16.3262 0 17.598 0.526784 18.5357 1.46447C19.4734 2.40215 20.0002 3.67392 20.0002 5V8H26.7582C27.951 8.00052 29.0948 8.47458 29.9383 9.318L35.5603 14.938C35.6997 15.0773 35.8103 15.2427 35.8857 15.4248C35.9612 15.6068 36 15.8019 36 15.999C36 16.1961 35.9612 16.3912 35.8857 16.5732C35.8103 16.7553 35.6997 16.9207 35.5603 17.06L29.9403 22.682C29.5224 23.0999 29.0263 23.4313 28.4803 23.6575C27.9344 23.8836 27.3492 24 26.7582 24H20.0002V37.5C20.0002 38.88 18.8802 40 17.5002 40H12.5001C11.1201 40 10.0001 38.88 10.0001 37.5V24H4.50004C3.30656 24 2.16195 23.5259 1.31803 22.682C0.47411 21.8381 0 20.6935 0 19.5V12.5C0 11.3065 0.47411 10.1619 1.31803 9.31802C2.16195 8.47411 3.30656 8 4.50004 8H10.0001V5ZM13.0001 8H17.0002V5C17.0002 4.46957 16.7894 3.96086 16.4144 3.58579C16.0393 3.21071 15.5306 3 15.0001 3C14.4697 3 13.961 3.21071 13.5859 3.58579C13.2108 3.96086 13.0001 4.46957 13.0001 5V8ZM13.0001 24V37H17.0002V24H13.0001ZM3.00003 12.5V19.5C3.00003 20.328 3.67203 21 4.50004 21H26.7582C27.1559 20.9996 27.5372 20.8414 27.8182 20.56L32.3783 16L27.8182 11.44C27.5372 11.1586 27.1559 11.0003 26.7582 11H4.50004C4.10221 11 3.72068 11.158 3.43937 11.4393C3.15806 11.7206 3.00003 12.1022 3.00003 12.5Z" fill="#444444"/>
</svg>
