<svg width="30" height="30" viewBox="0 0 30 30" fill="none" xmlns="http://www.w3.org/2000/svg">
<path d="M8.54676 2C9.29496 2 12.2878 8.73381 12.2878 9.48201C12.2878 10.9784 10.0432 12.4748 9.29496 13.9712C8.54676 15.4676 10.0432 16.964 11.5396 18.4604C12.1232 19.044 14.5324 21.4532 16.0288 20.705C17.5252 19.9568 19.0216 17.7122 20.518 17.7122C21.2662 17.7122 28 20.705 28 21.4532C28 24.446 25.7554 26.6906 23.5108 27.4388C21.2662 28.1871 19.7698 28.1871 16.777 27.4388C13.7842 26.6906 11.5396 25.9424 7.79856 22.2014C4.05755 18.4604 3.30935 16.2158 2.56115 13.223C1.81295 10.2302 1.81295 8.73381 2.56115 6.48921C3.30935 4.2446 5.55396 2 8.54676 2Z" stroke="#444444" stroke-width="3" stroke-linecap="round" stroke-linejoin="round"/>
</svg>
