<svg width="46" height="57" viewBox="0 0 46 57" fill="none" xmlns="http://www.w3.org/2000/svg">
<path d="M23 34C24.5125 34 25.8073 33.4614 26.8844 32.3844C27.9614 31.3073 28.5 30.0125 28.5 28.5C28.5 26.9875 27.9614 25.6927 26.8844 24.6156C25.8073 23.5386 24.5125 23 23 23C21.4875 23 20.1927 23.5386 19.1156 24.6156C18.0386 25.6927 17.5 26.9875 17.5 28.5C17.5 30.0125 18.0386 31.3073 19.1156 32.3844C20.1927 33.4614 21.4875 34 23 34ZM12 45H34V43.4187C34 42.3187 33.702 41.3105 33.1063 40.3938C32.5105 39.477 31.6855 38.7895 30.6312 38.3312C29.4395 37.827 28.2136 37.4375 26.9531 37.1625C25.6927 36.8875 24.375 36.75 23 36.75C21.625 36.75 20.3073 36.8875 19.0469 37.1625C17.7864 37.4375 16.5605 37.827 15.3688 38.3312C14.3145 38.7895 13.4895 39.477 12.8937 40.3938C12.298 41.3105 12 42.3187 12 43.4187V45ZM40.875 56H5.125C4.025 56 3.0625 55.5875 2.2375 54.7625C1.4125 53.9375 1 52.975 1 51.875V5.125C1 4.025 1.4125 3.0625 2.2375 2.2375C3.0625 1.4125 4.025 1 5.125 1H26.85C27.4202 1 27.9638 1.11458 28.4808 1.34375C28.9977 1.57292 29.4395 1.87083 29.8063 2.2375L43.7625 16.1938C44.1292 16.5605 44.427 17.0023 44.6562 17.5192C44.8855 18.0362 45 18.5798 45 19.15V51.875C45 52.975 44.5875 53.9375 43.7625 54.7625C42.9375 55.5875 41.975 56 40.875 56ZM40.875 51.875V19.2875L26.7125 5.125H5.125V51.875H40.875Z" fill="white" stroke="white"/>
</svg>
