<svg width="37" height="30" viewBox="0 0 37 30" fill="none" xmlns="http://www.w3.org/2000/svg">
<path d="M2 5.71429C2 4.7292 2.39133 3.78445 3.08789 3.08789C3.78445 2.39133 4.7292 2 5.71429 2H31.7143C32.6994 2 33.6441 2.39133 34.3407 3.08789C35.0372 3.78445 35.4286 4.7292 35.4286 5.71429V24.2857C35.4286 25.2708 35.0372 26.2155 34.3407 26.9121C33.6441 27.6087 32.6994 28 31.7143 28H5.71429C4.7292 28 3.78445 27.6087 3.08789 26.9121C2.39133 26.2155 2 25.2708 2 24.2857V5.71429Z" stroke="#444444" stroke-width="3" stroke-linecap="round" stroke-linejoin="round"/>
<path d="M2 5.71429L18.7143 16.8572L35.4286 5.71429" stroke="#444444" stroke-width="3" stroke-linecap="round" stroke-linejoin="round"/>
</svg>
