<svg width="58" height="62" viewBox="0 0 58 62" fill="none" xmlns="http://www.w3.org/2000/svg">
<path d="M46.0778 62C42.7481 62 39.9287 60.8306 37.6194 58.4921C35.3102 56.1536 34.1556 53.2983 34.1556 49.9263C34.1556 46.5543 35.3102 43.6991 37.6194 41.3605C39.9287 39.022 42.7481 37.8526 46.0778 37.8526C49.4075 37.8526 52.2269 39.022 54.5361 41.3605C56.8453 43.6991 58 46.5543 58 49.9263C58 53.2983 56.8453 56.1536 54.5361 58.4921C52.2269 60.8306 49.4075 62 46.0778 62ZM46.0778 57.1053C48.1186 57.1053 49.8102 56.4254 51.1528 55.0658C52.4953 53.7062 53.1667 51.993 53.1667 49.9263C53.1667 47.8596 52.4953 46.1464 51.1528 44.7868C49.8102 43.4272 48.1186 42.7474 46.0778 42.7474C44.037 42.7474 42.3453 43.4272 41.0028 44.7868C39.6602 46.1464 38.9889 47.8596 38.9889 49.9263C38.9889 51.993 39.6602 53.7062 41.0028 55.0658C42.3453 56.4254 44.037 57.1053 46.0778 57.1053ZM11.9222 51.3947C8.59254 51.3947 5.77314 50.2254 3.46389 47.8868C1.15463 45.5483 0 42.693 0 39.3211C0 35.9491 1.15463 33.0938 3.46389 30.7553C5.77314 28.4167 8.59254 27.2474 11.9222 27.2474C15.2519 27.2474 18.0714 28.4167 20.3806 30.7553C22.6898 33.0938 23.8444 35.9491 23.8444 39.3211C23.8444 42.693 22.6898 45.5483 20.3806 47.8868C18.0714 50.2254 15.2519 51.3947 11.9222 51.3947ZM11.9222 46.5C13.9092 46.5 15.5875 45.8066 16.9569 44.4197C18.3264 43.0329 19.0111 41.3333 19.0111 39.3211C19.0111 37.3088 18.3264 35.6092 16.9569 34.2224C15.5875 32.8355 13.9092 32.1421 11.9222 32.1421C9.93524 32.1421 8.25694 32.8355 6.8875 34.2224C5.51805 35.6092 4.83333 37.3088 4.83333 39.3211C4.83333 41.3333 5.51805 43.0329 6.8875 44.4197C8.25694 45.8066 9.93524 46.5 11.9222 46.5ZM25.5361 24.1474C22.2064 24.1474 19.387 22.978 17.0778 20.6395C14.7686 18.3009 13.6139 15.4457 13.6139 12.0737C13.6139 8.70175 14.7686 5.84649 17.0778 3.50789C19.387 1.1693 22.2064 0 25.5361 0C28.8658 0 31.6852 1.1693 33.9944 3.50789C36.3037 5.84649 37.4583 8.70175 37.4583 12.0737C37.4583 15.4457 36.3037 18.3009 33.9944 20.6395C31.6852 22.978 28.8658 24.1474 25.5361 24.1474ZM25.5361 19.2526C27.5769 19.2526 29.2686 18.5728 30.6111 17.2132C31.9537 15.8536 32.625 14.1404 32.625 12.0737C32.625 10.007 31.9537 8.29385 30.6111 6.93421C29.2686 5.57457 27.5769 4.89474 25.5361 4.89474C23.4953 4.89474 21.8037 5.57457 20.4611 6.93421C19.1186 8.29385 18.4472 10.007 18.4472 12.0737C18.4472 14.1404 19.1186 15.8536 20.4611 17.2132C21.8037 18.5728 23.4953 19.2526 25.5361 19.2526Z" fill="white"/>
</svg>
