<svg width="59" height="59" viewBox="0 0 59 59" fill="none" xmlns="http://www.w3.org/2000/svg">
<path d="M33.2594 38.367C34.913 42.497 37.2983 43.1154 38.5747 43.1154C39.8511 43.1154 42.2365 42.497 43.8901 38.367C44.8516 35.9616 45.382 32.8131 45.382 29.5C45.382 26.1869 44.8516 23.0384 43.8901 20.633C42.2365 16.503 39.8511 15.8846 38.5747 15.8846C37.2983 15.8846 34.913 16.503 33.2594 20.633C32.2978 23.0384 31.7674 26.1869 31.7674 29.5C31.7674 32.8131 32.2978 35.9616 33.2594 38.367ZM38.5747 20.4798C39.3178 21.0641 40.8438 24.1673 40.8438 29.5C40.8438 34.8327 39.3178 37.9359 38.5747 38.5202C37.8316 37.9359 36.3056 34.8327 36.3056 29.5C36.3056 24.1673 37.8316 21.0641 38.5747 20.4798ZM56.7275 54.4615H46.6329C51.3725 49.2792 54.4584 40.1285 54.4584 29.5C54.4584 12.9573 46.9846 0 37.4402 0H17.0183C7.47384 0 0 12.9573 0 29.5C0 46.0427 7.47384 59 17.0183 59H56.7275C58.4743 58.9999 59.566 57.1088 58.6926 55.5961C58.2873 54.894 57.5381 54.4616 56.7275 54.4615ZM45.8756 11.3263C48.4822 16.1427 49.9202 22.5987 49.9202 29.5C49.9202 36.4013 48.4822 42.8573 45.8756 47.6737C43.5044 52.0505 40.5091 54.4615 37.4402 54.4615C34.3712 54.4615 31.376 52.0505 29.0048 47.6737C26.3981 42.8573 24.9601 36.4013 24.9601 29.5C24.9601 22.5987 26.3981 16.1427 29.0048 11.3263C31.376 6.94953 34.3712 4.53847 37.4402 4.53847C40.5091 4.53847 43.5044 6.94953 45.8756 11.3263ZM4.53821 29.5C4.53821 28.7909 4.55806 28.0817 4.58642 27.3896L13.6146 20.9422L20.5439 25.8919C20.4645 27.0719 20.4219 28.2775 20.4219 29.5C20.4147 32.6877 20.7063 35.8691 21.2927 39.0024L14.9335 34.4639C14.1445 33.9003 13.0847 33.9003 12.2957 34.4639L5.56214 39.2861C4.86941 36.0704 4.5261 32.7894 4.53821 29.5ZM8.58287 11.3263C10.9541 6.94953 13.9493 4.53847 17.0183 4.53847H28.2475C24.8722 8.22597 22.3365 13.9331 21.1565 20.7521L14.9335 16.3073C14.1445 15.7436 13.0847 15.7436 12.2957 16.3073L5.24446 21.345C5.91384 17.5865 7.04272 14.1827 8.58287 11.3263ZM8.58287 47.6737C7.93014 46.4569 7.36703 45.1941 6.89808 43.8954L13.6146 39.096L23.2413 45.9718C24.546 49.3756 26.2478 52.2746 28.2475 54.4615H17.0183C13.9493 54.4615 10.9541 52.0505 8.58287 47.6737Z" fill="white"/>
</svg>
