<svg width="73" height="58" viewBox="0 0 73 58" fill="none" xmlns="http://www.w3.org/2000/svg">
<path d="M3 10.4444C3 8.47005 3.78432 6.57653 5.18043 5.18043C6.57653 3.78432 8.47006 3 10.4444 3H62.5556C64.5299 3 66.4235 3.78432 67.8196 5.18043C69.2157 6.57653 70 8.47005 70 10.4444V47.6667C70 49.6411 69.2157 51.5346 67.8196 52.9307C66.4235 54.3268 64.5299 55.1111 62.5556 55.1111H10.4444C8.47006 55.1111 6.57653 54.3268 5.18043 52.9307C3.78432 51.5346 3 49.6411 3 47.6667V10.4444Z" stroke="#444444" stroke-width="5" stroke-linecap="round" stroke-linejoin="round"/>
<path d="M3 10.4446L36.5 32.7779L70 10.4446" stroke="#444444" stroke-width="5" stroke-linecap="round" stroke-linejoin="round"/>
</svg>
