<svg width="59" height="59" viewBox="0 0 59 59" fill="none" xmlns="http://www.w3.org/2000/svg">
<path d="M15.8972 42.9389V48.1014C15.8972 48.693 16.0918 49.1826 16.4807 49.5698C16.8691 49.9566 17.3607 50.15 17.9557 50.15C18.5501 50.15 19.0385 49.9566 19.4208 49.5698C19.8032 49.1826 19.9944 48.693 19.9944 48.1014V42.9389H25.1569C25.7486 42.9389 26.2381 42.7444 26.6254 42.3554C27.0122 41.967 27.2056 41.4754 27.2056 40.8804C27.2056 40.286 27.0122 39.7976 26.6254 39.4153C26.2381 39.0329 25.7486 38.8417 25.1569 38.8417H19.9944V33.6792C19.9944 33.0875 19.7999 32.598 19.411 32.2107C19.0226 31.8239 18.5309 31.6306 17.936 31.6306C17.3416 31.6306 16.8532 31.8239 16.4708 32.2107C16.0885 32.598 15.8972 33.0875 15.8972 33.6792V38.8417H10.7347C10.1431 38.8417 9.65355 39.0362 9.26628 39.4251C8.8795 39.8135 8.68611 40.3052 8.68611 40.9001C8.68611 41.4945 8.8795 41.9829 9.26628 42.3653C9.65355 42.7476 10.1431 42.9389 10.7347 42.9389H15.8972ZM35.5639 47.2819H48.0194C48.5876 47.2819 49.0574 47.0874 49.4289 46.6985C49.8004 46.3101 49.9861 45.8184 49.9861 45.2235C49.9861 44.6291 49.8086 44.1544 49.4535 43.7993C49.0983 43.4442 48.6204 43.2667 48.0194 43.2667H35.4819C34.9137 43.2667 34.444 43.4442 34.0725 43.7993C33.701 44.1544 33.5153 44.6291 33.5153 45.2235C33.5153 45.8184 33.7087 46.3101 34.0954 46.6985C34.4827 47.0874 34.9723 47.2819 35.5639 47.2819ZM35.5639 38.5139H47.9375C48.5291 38.5139 49.0187 38.3194 49.4059 37.9304C49.7927 37.542 49.9861 37.0504 49.9861 36.4554C49.9861 35.861 49.7927 35.3726 49.4059 34.9903C49.0187 34.6079 48.5291 34.4167 47.9375 34.4167H35.5639C34.9723 34.4167 34.4827 34.6112 34.0954 35.0001C33.7087 35.3885 33.5153 35.8802 33.5153 36.4751C33.5153 37.0695 33.7087 37.5579 34.0954 37.9403C34.4827 38.3226 34.9723 38.5139 35.5639 38.5139ZM41.5458 20.1583L45.0694 23.6819C45.4869 24.119 45.9736 24.3375 46.5297 24.3375C47.0858 24.3375 47.5824 24.119 48.0194 23.6819C48.4565 23.2449 48.675 22.7532 48.675 22.2069C48.675 21.6607 48.4565 21.169 48.0194 20.7319L44.4958 17.2083L48.0194 13.6847C48.4565 13.2673 48.675 12.7805 48.675 12.2245C48.675 11.6684 48.4565 11.1718 48.0194 10.7347C47.5824 10.2976 47.0858 10.0792 46.5297 10.0792C45.9736 10.0792 45.4869 10.2976 45.0694 10.7347L41.5458 14.2583L38.0222 10.7347C37.6048 10.2976 37.118 10.0792 36.562 10.0792C36.0059 10.0792 35.5093 10.2976 35.0722 10.7347C34.6351 11.1718 34.4167 11.6684 34.4167 12.2245C34.4167 12.7805 34.6351 13.2673 35.0722 13.6847L38.5958 17.2083L35.0722 20.7319C34.6351 21.1531 34.4167 21.6448 34.4167 22.2069C34.4167 22.7691 34.6351 23.2607 35.0722 23.6819C35.4896 24.119 35.9764 24.3375 36.5325 24.3375C37.0885 24.3375 37.5851 24.119 38.0222 23.6819L41.5458 20.1583ZM11.9639 19.2569H23.9278C24.5194 19.2569 25.009 19.0624 25.3962 18.6735C25.783 18.2851 25.9764 17.7934 25.9764 17.1985C25.9764 16.6041 25.783 16.1157 25.3962 15.7333C25.009 15.351 24.5194 15.1597 23.9278 15.1597H11.9639C11.3722 15.1597 10.8827 15.3543 10.4954 15.7432C10.1087 16.1316 9.91528 16.6233 9.91528 17.2182C9.91528 17.8126 10.1087 18.301 10.4954 18.6833C10.8827 19.0657 11.3722 19.2569 11.9639 19.2569ZM4.91667 59C3.60556 59 2.45833 58.5083 1.475 57.525C0.491667 56.5417 0 55.3944 0 54.0833V4.91667C0 3.60556 0.491667 2.45833 1.475 1.475C2.45833 0.491667 3.60556 0 4.91667 0H54.0833C55.3944 0 56.5417 0.491667 57.525 1.475C58.5083 2.45833 59 3.60556 59 4.91667V54.0833C59 55.3944 58.5083 56.5417 57.525 57.525C56.5417 58.5083 55.3944 59 54.0833 59H4.91667ZM4.91667 54.0833H54.0833V4.91667H4.91667V54.0833Z" fill="#444444"/>
</svg>
