<svg width="65" height="59" viewBox="0 0 65 59" fill="none" xmlns="http://www.w3.org/2000/svg">
<path d="M32.1322 54.5695C32.3785 54.5695 32.6616 54.5079 32.9816 54.3849C33.3017 54.2617 33.5602 54.1017 33.7571 53.9049L58.648 28.9462C59.2882 28.3061 59.7683 27.5801 60.0883 26.7679C60.4084 25.9556 60.5684 25.1309 60.5684 24.2941C60.5684 23.4572 60.4084 22.6203 60.0883 21.7835C59.7683 20.9466 59.2882 20.2081 58.648 19.5682L45.3532 6.27659C44.7131 5.63663 43.9745 5.15666 43.1374 4.83667C42.3004 4.51668 41.4633 4.35669 40.6261 4.35669C39.7892 4.35669 38.9643 4.51668 38.1518 4.83667C37.3394 5.15666 36.6132 5.63663 35.9729 6.27659L34.6435 7.60575L40.6261 13.6609C41.2664 14.3499 41.8326 15.15 42.3249 16.0607C42.8174 16.9713 43.0635 17.9682 43.0635 19.0513C43.0635 20.9219 42.3373 22.5711 40.8847 23.9988C39.4321 25.4263 37.7703 26.1402 35.8991 26.1402C34.6681 26.1402 33.6464 25.9556 32.8339 25.5864C32.0214 25.2172 31.2706 24.6879 30.5812 23.9988L25.1894 18.6083L11.8207 31.9737C11.5745 32.2198 11.4022 32.4782 11.3037 32.7491C11.2052 33.0198 11.156 33.3029 11.156 33.5983C11.156 34.2382 11.3652 34.7673 11.7838 35.1859C12.2024 35.6043 12.7317 35.8135 13.3717 35.8135C13.6672 35.8135 13.9503 35.7397 14.2211 35.592C14.492 35.4443 14.7259 35.272 14.9228 35.0751L23.5644 26.4356C24.0076 25.9925 24.5246 25.771 25.1155 25.771C25.7064 25.771 26.2234 25.9925 26.6666 26.4356C27.1097 26.8786 27.3313 27.3955 27.3313 27.9862C27.3313 28.577 27.1097 29.0939 26.6666 29.5369L18.0988 38.1026C17.8527 38.3487 17.6803 38.6195 17.5818 38.9149C17.4834 39.2103 17.434 39.5056 17.434 39.801C17.434 40.3918 17.6556 40.9086 18.0988 41.3517C18.5419 41.7948 19.059 42.0163 19.6498 42.0163C19.9453 42.0163 20.2285 41.9547 20.4992 41.8317C20.7702 41.7085 21.004 41.5486 21.2009 41.3517L29.8426 32.7122C30.2857 32.2691 30.8027 32.0476 31.3936 32.0476C31.9845 32.0476 32.5015 32.2691 32.9447 32.7122C33.3878 33.1552 33.6094 33.6721 33.6094 34.2628C33.6094 34.8536 33.3878 35.3705 32.9447 35.8135L24.3769 44.3792C24.18 44.5761 24.02 44.8345 23.8968 45.1546C23.7738 45.4745 23.7122 45.7822 23.7122 46.0776C23.7122 46.6683 23.9337 47.1852 24.3769 47.6283C24.8201 48.0713 25.3371 48.2929 25.928 48.2929C26.2234 48.2929 26.4943 48.2435 26.7404 48.1452C26.9867 48.0467 27.2329 47.8743 27.479 47.6283L36.1207 38.9887C36.5638 38.5457 37.0808 38.3242 37.6717 38.3242C38.2626 38.3242 38.7796 38.5457 39.2228 38.9887C39.666 39.4318 39.8875 39.9487 39.8875 40.5394C39.8875 41.1302 39.666 41.6471 39.2228 42.0901L30.5812 50.7297C30.3351 50.9757 30.1627 51.2466 30.0641 51.5419C29.9657 51.8373 29.9164 52.108 29.9164 52.3542C29.9164 53.0433 30.1135 53.5849 30.5073 53.9787C30.9013 54.3725 31.443 54.5695 32.1322 54.5695ZM32.1322 59C30.5073 59 29.0548 58.3969 27.7745 57.1909C26.4943 55.9847 25.731 54.4956 25.4848 52.7234C23.8107 52.4772 22.4073 51.788 21.2748 50.6558C20.1423 49.5235 19.4529 48.1205 19.2067 46.4468C17.5326 46.2006 16.1415 45.4991 15.0336 44.3423C13.9257 43.1854 13.2487 41.7948 13.0024 40.1702C11.1806 39.924 9.67876 39.1856 8.497 37.955C7.31524 36.7242 6.72435 35.2473 6.72435 33.5244C6.72435 32.6875 6.88438 31.8506 7.20444 31.0138C7.52451 30.1769 8.0046 29.4384 8.64472 28.7985L22.0872 15.3592C22.9244 14.5223 23.9584 14.1039 25.1894 14.1039C26.4205 14.1039 27.4545 14.5223 28.2915 15.3592L33.314 20.3805C33.708 20.7742 34.1389 21.082 34.6065 21.3035C35.0744 21.5251 35.5298 21.6358 35.9729 21.6358C36.6132 21.6358 37.2163 21.3527 37.7825 20.7866C38.3489 20.2204 38.6319 19.6174 38.6319 18.9775C38.6319 18.6821 38.5458 18.3498 38.3734 17.9806C38.2012 17.6114 37.918 17.2298 37.524 16.8361L26.962 6.27659C26.3219 5.63663 25.5833 5.15666 24.7462 4.83667C23.9092 4.51668 23.0721 4.35669 22.2349 4.35669C21.398 4.35669 20.5731 4.51668 19.7606 4.83667C18.9482 5.15666 18.222 5.63663 17.5818 6.27659L6.35505 17.5006C5.37024 18.4851 4.76706 19.679 4.54548 21.082C4.3239 22.485 4.48392 23.8264 5.02557 25.1064C5.27177 25.6478 5.27177 26.2016 5.02557 26.7679C4.77936 27.3339 4.38545 27.7401 3.84381 27.9862C3.30216 28.2323 2.7359 28.2323 2.14502 27.9862C1.55414 27.7401 1.1356 27.3462 0.889399 26.8048C0.0523115 24.5895 -0.193879 22.3865 0.150797 20.1959C0.495473 18.0051 1.52952 16.0483 3.25292 14.3254L14.4058 3.17522C15.4892 2.0922 16.7201 1.29224 18.0988 0.775344C19.4776 0.258448 20.8809 0 22.3088 0C23.7368 0 25.1279 0.258448 26.4819 0.775344C27.8361 1.29224 29.0548 2.0922 30.138 3.17522L31.4675 4.50438L32.797 3.17522C33.8803 2.0922 35.1113 1.29224 36.49 0.775344C37.8688 0.258448 39.2721 0 40.7 0C42.128 0 43.5191 0.258448 44.8731 0.775344C46.2273 1.29224 47.4459 2.0922 48.5292 3.17522L61.7502 16.393C62.8335 17.476 63.646 18.7066 64.1875 20.0851C64.7292 21.4635 65 22.8665 65 24.2941C65 25.7217 64.7292 27.1124 64.1875 28.4662C63.646 29.8199 62.8335 31.0383 61.7502 32.1214L36.8593 57.0063C36.2192 57.6462 35.4929 58.1384 34.6804 58.4831C33.8679 58.8277 33.0185 59 32.1322 59Z" fill="#444444"/>
</svg>
