<svg width="68" height="58" viewBox="0 0 68 58" fill="none" xmlns="http://www.w3.org/2000/svg">
<path d="M19.5014 58C17.6624 58 16.0989 57.3556 14.811 56.0667C13.5231 54.7778 12.8791 53.1936 12.8791 51.3139V20.6222L6.35906 4.83333H2.41483C1.73063 4.83333 1.15724 4.60025 0.694667 4.13411C0.23155 3.6685 0 3.09119 0 2.40217C0 1.71369 0.23155 1.1412 0.694667 0.684723C1.15724 0.228246 1.73063 0 2.41483 0H7.96895C8.45622 0 8.90296 0.135333 9.30919 0.406C9.71541 0.676666 10.02 1.02467 10.2228 1.45L15.009 12.8889H65.5225C66.4418 12.8889 67.1409 13.2783 67.6202 14.0569C68.0999 14.8356 68.1252 15.6278 67.6959 16.4333L57.6341 36.25C60.3709 36.5722 62.6516 37.7528 64.4761 39.792C66.3006 41.8312 67.2129 44.236 67.2129 47.0066C67.2129 50.0392 66.1645 52.6161 64.068 54.7375C61.9714 56.8588 59.4218 57.9194 56.4194 57.9194C53.3654 57.9194 50.792 56.8577 48.6992 54.7343C46.6063 52.6113 45.5599 50.048 45.5599 47.0444C45.5599 45.9703 45.7075 44.9231 46.0026 43.9028C46.2977 42.8825 46.7404 41.9425 47.3308 41.0833L35.0151 40.0361L25.0338 54.9389C24.4434 55.8519 23.6522 56.5903 22.66 57.1542C21.6678 57.7181 20.615 58 19.5014 58ZM51.9994 36.7333L61.6588 17.7222H16.9038L21.8945 29.6444C22.4848 31.0408 23.3434 32.1686 24.4703 33.0278C25.5972 33.887 26.9388 34.3972 28.4951 34.5583L51.9994 36.7333ZM19.5602 53.0861C19.6675 53.0861 20.1505 52.8175 21.0091 52.2806L29.5415 39.5528C27.3412 39.338 25.235 38.8009 23.2227 37.9417C21.2103 37.0825 19.7211 35.5787 18.7552 33.4306L17.7088 31.175V51.3944C17.7088 51.8778 17.91 52.2806 18.3125 52.6028C18.715 52.925 19.1308 53.0861 19.5602 53.0861ZM56.318 52.7639C58.0539 52.7639 59.4988 52.1794 60.6526 51.0102C61.8064 49.8405 62.3832 48.4207 62.3832 46.7504C62.3832 45.0132 61.813 43.5672 60.6727 42.4125C59.5324 41.2578 58.0901 40.6806 56.3461 40.6806C54.6691 40.6806 53.2439 41.2512 52.0703 42.3924C50.8962 43.5335 50.3091 44.9769 50.3091 46.7222C50.3091 48.4005 50.8931 49.8268 52.0614 51.0013C53.2302 52.1763 54.649 52.7639 56.318 52.7639Z" fill="#444444"/>
</svg>
