<svg width="65" height="65" viewBox="0 0 65 65" fill="none" xmlns="http://www.w3.org/2000/svg">
<path d="M57.3063 3.18172L56.5184 0.809097L56.5152 0.810188L57.3063 3.18172ZM60.9537 4.04629L59.1847 5.81285L59.1872 5.81527L60.9537 4.04629ZM61.8183 7.69368L64.1898 8.4848L64.1909 8.48153L61.8183 7.69368ZM8.72783 62V64.5L8.73049 64.5L8.72783 62ZM3 56.2722L0.5 56.2696V56.2722H3ZM4.67512 52.2196L2.90736 50.4518L2.90283 50.4563L4.67512 52.2196ZM12.7805 60.3249L14.5438 62.0972L14.5483 62.0927L12.7805 60.3249ZM47.9966 20.5394C48.9729 19.5631 48.973 17.9802 47.9966 17.0039C47.0203 16.0275 45.4374 16.0275 44.4611 17.0038L47.9966 20.5394ZM22.4297 43.6047L24.1975 41.8369L22.4297 43.6047ZM22.4297 50.6758L24.1975 52.4436L22.4297 50.6758ZM21.3954 42.5704L19.6277 44.3382L21.3954 42.5704ZM21.9496 16.4291L24.4463 16.301L21.9496 16.4291ZM23.2797 14.5324L24.0709 16.904L23.2797 14.5324ZM48.5708 43.05L48.6989 40.5533L48.5708 43.05ZM50.4675 41.7198L48.0959 40.9287L50.4675 41.7198ZM48.5708 43.05L48.6989 40.5533C42.3877 40.2295 36.4007 37.5797 31.9103 33.0893L30.1426 34.8571L28.3748 36.6249C33.7424 41.9924 40.8987 45.1597 48.4427 45.5467L48.5708 43.05ZM30.1426 34.8571L31.9103 33.0893C27.4199 28.5989 24.77 22.6121 24.4463 16.301L21.9496 16.4291L19.4528 16.5572C19.8398 24.1012 23.0073 31.2574 28.3748 36.6249L30.1426 34.8571ZM23.2797 14.5324L24.0709 16.904L58.0974 5.55325L57.3063 3.18172L56.5152 0.810188L22.4886 12.1609L23.2797 14.5324ZM57.3063 3.18172L58.0941 5.55434C58.282 5.49195 58.4835 5.48309 58.6761 5.52875L59.2527 3.09616L59.8293 0.663561C58.7336 0.40383 57.5872 0.454223 56.5184 0.809099L57.3063 3.18172ZM59.2527 3.09616L58.6761 5.52875C58.8688 5.57441 59.0449 5.67278 59.1847 5.81285L60.9537 4.04629L62.7227 2.27972C61.9269 1.48289 60.9251 0.923292 59.8293 0.663561L59.2527 3.09616ZM60.9537 4.04629L59.1872 5.81527C59.3272 5.95515 59.4256 6.13125 59.4713 6.32386L61.9038 5.74724L64.3364 5.17061C64.0767 4.07486 63.5171 3.07303 62.7202 2.2773L60.9537 4.04629ZM61.9038 5.74724L59.4713 6.32386C59.5169 6.51645 59.508 6.71797 59.4457 6.90583L61.8183 7.69368L64.1909 8.48153C64.5458 7.4128 64.5962 6.26638 64.3364 5.17061L61.9038 5.74724ZM61.8183 7.69368L59.4468 6.90256L48.0959 40.9287L50.4675 41.7198L52.839 42.5109L64.1898 8.4848L61.8183 7.69368ZM8.72783 62V59.5C7.87174 59.5 7.05073 59.1599 6.4454 58.5546L4.67764 60.3224L2.90988 62.0902C4.4529 63.6332 6.54568 64.5 8.72783 64.5V62ZM4.67764 60.3224L6.4454 58.5546C5.84007 57.9493 5.5 57.1283 5.5 56.2722H3H0.5C0.5 58.4544 1.36687 60.5472 2.90988 62.0902L4.67764 60.3224ZM3 56.2722L5.5 56.2749C5.50091 55.4158 5.84147 54.5919 6.44741 53.9828L4.67512 52.2196L2.90283 50.4563C1.36605 52.001 0.50232 54.0907 0.500001 56.2696L3 56.2722ZM4.67512 52.2196L6.44288 53.9874L16.0922 44.3382L14.3244 42.5704L12.5567 40.8026L2.90736 50.4518L4.67512 52.2196ZM21.3954 42.5704L19.6277 44.3382L20.662 45.3725L22.4297 43.6047L24.1975 41.8369L23.1632 40.8026L21.3954 42.5704ZM22.4297 50.6758L20.662 48.908L11.0128 58.5571L12.7805 60.3249L14.5483 62.0927L24.1975 52.4436L22.4297 50.6758ZM12.7805 60.3249L11.0173 58.5526C10.4083 59.1585 9.58432 59.4991 8.72517 59.5L8.72783 62L8.73049 64.5C10.9094 64.4977 12.9991 63.634 14.5437 62.0972L12.7805 60.3249ZM46.2289 18.7716L44.4611 17.0038L20.1449 41.3198L21.9126 43.0876L23.6804 44.8554L47.9966 20.5394L46.2289 18.7716ZM22.4297 43.6047L20.662 45.3725C21.6383 46.3488 21.6383 47.9317 20.662 48.908L22.4297 50.6758L24.1975 52.4436C27.1265 49.5146 27.1265 44.7658 24.1975 41.8369L22.4297 43.6047ZM14.3244 42.5704L16.0922 44.3382C17.0685 43.3619 18.6514 43.3619 19.6277 44.3382L21.3954 42.5704L23.1632 40.8026C20.2343 37.8737 15.4856 37.8737 12.5567 40.8026L14.3244 42.5704ZM21.9496 16.4291L24.4463 16.301C24.4636 16.6385 24.2466 16.8453 24.0709 16.904L23.2797 14.5324L22.4886 12.1609C20.6799 12.7643 19.3473 14.5006 19.4528 16.5572L21.9496 16.4291ZM48.5708 43.05L48.4427 45.5467C50.4993 45.6522 52.2356 44.3196 52.839 42.5109L50.4675 41.7198L48.0959 40.9287C48.1546 40.7529 48.3614 40.536 48.6989 40.5533L48.5708 43.05Z" fill="#444444"/>
</svg>
