<svg width="204" height="118" viewBox="0 0 204 118" fill="none" xmlns="http://www.w3.org/2000/svg">
<path d="M181.159 67.4735V32.8549H187.736V67.4735H181.159Z" fill="#35453B"/>
<path d="M158.03 67.4735V38.7895H145.518V32.8549H177.169V38.7895H164.657V67.4735H158.03Z" fill="#35453B"/>
<path d="M134.649 67.4735V32.8549H141.227V67.4735H134.649Z" fill="#35453B"/>
<path d="M96.2056 67.4735V32.8549H102.783L121.576 57.4341V32.8549H128.203V67.4735H121.576L102.783 42.8943V67.4735H96.2056Z" fill="#35453B"/>
<path d="M83.2139 67.4735V32.8549H89.7914V67.4735H83.2139Z" fill="#35453B"/>
<path d="M51.4355 67.4735V32.8549H78.4875V38.7895H58.0131V47.3453H77.3995V52.9832H58.0131V67.4735H51.4355Z" fill="#35453B"/>
<path d="M12.9917 67.4735V32.8549H19.5692L38.3622 57.4341V32.8549H44.9892V67.4735H38.3622L19.5692 42.8943V67.4735H12.9917Z" fill="#35453B"/>
<path d="M0 67.4735V32.8549H6.57753V67.4735H0Z" fill="#35453B"/>
<path d="M187.759 102.035C185.62 102.035 183.594 101.632 181.681 100.825C179.795 100.018 178.135 98.9186 176.7 97.5273C175.293 96.1081 174.181 94.4663 173.365 92.6019C172.549 90.7096 172.141 88.7061 172.141 86.5912C172.141 84.4485 172.549 82.4449 173.365 80.5805C174.181 78.7161 175.293 77.0882 176.7 75.6968C178.135 74.2776 179.795 73.1645 181.681 72.3575C183.594 71.5506 185.62 71.1471 187.759 71.1471C189.926 71.1471 191.952 71.5506 193.837 72.3575C195.722 73.1645 197.369 74.2776 198.776 75.6968C200.211 77.0882 201.336 78.7161 202.152 80.5805C202.968 82.4449 203.376 84.4485 203.376 86.5912C203.376 88.7061 202.968 90.7096 202.152 92.6019C201.336 94.4663 200.211 96.1081 198.776 97.5273C197.369 98.9186 195.722 100.018 193.837 100.825C191.952 101.632 189.926 102.035 187.759 102.035ZM177.755 86.5912C177.755 88.0104 178.008 89.3461 178.515 90.5983C179.021 91.8227 179.711 92.8941 180.583 93.8124C181.484 94.7306 182.539 95.4542 183.749 95.9829C184.987 96.5116 186.324 96.776 187.759 96.776C189.194 96.776 190.516 96.5116 191.726 95.9829C192.937 95.4542 193.978 94.7306 194.85 93.8124C195.75 92.8941 196.454 91.8227 196.961 90.5983C197.467 89.3461 197.72 88.0104 197.72 86.5912C197.72 85.172 197.467 83.8502 196.961 82.6258C196.454 81.3736 195.75 80.2883 194.85 79.37C193.978 78.4517 192.937 77.7282 191.726 77.1995C190.516 76.6708 189.194 76.4064 187.759 76.4064C186.324 76.4064 184.987 76.6708 183.749 77.1995C182.539 77.7282 181.484 78.4517 180.583 79.37C179.711 80.2883 179.021 81.3736 178.515 82.6258C178.008 83.8502 177.755 85.172 177.755 86.5912Z" fill="#35453B"/>
<path d="M163.802 102.167L154.147 91.2277H148.212V102.167H142.322V71.1651H160.037C161.454 71.1651 162.753 71.4456 163.934 72.0066C165.115 72.538 166.134 73.2614 166.99 74.1767C167.876 75.092 168.555 76.1697 169.028 77.4097C169.5 78.6203 169.736 79.8899 169.736 81.2185C169.736 82.4586 169.515 83.6544 169.072 84.8059C168.658 85.9574 168.068 86.976 167.3 87.8618C166.533 88.7475 165.603 89.4857 164.51 90.0762C163.447 90.6372 162.296 90.9767 161.056 91.0948L170.799 102.167H163.802ZM159.151 86.0902C159.919 86.0902 160.598 85.9574 161.189 85.6916C161.779 85.3964 162.281 85.0126 162.694 84.5401C163.137 84.0677 163.462 83.551 163.669 82.9901C163.905 82.3995 164.023 81.809 164.023 81.2185C164.023 80.628 163.905 80.0375 163.669 79.447C163.462 78.8565 163.137 78.3398 162.694 77.8969C162.281 77.4245 161.779 77.0554 161.189 76.7897C160.598 76.4945 159.919 76.3468 159.151 76.3468H148.212V86.0902H159.151Z" fill="#35453B"/>
<path d="M129.594 91.2277H117.99V102.167H112.1V71.1651H129.594C130.982 71.1651 132.266 71.4456 133.447 72.0066C134.658 72.538 135.691 73.2614 136.547 74.1767C137.433 75.092 138.112 76.1697 138.584 77.4097C139.057 78.6203 139.293 79.8899 139.293 81.2185C139.293 82.5472 139.057 83.8168 138.584 85.0273C138.112 86.2379 137.433 87.3008 136.547 88.2161C135.691 89.1314 134.658 89.8695 133.447 90.4305C132.266 90.9619 130.982 91.2277 129.594 91.2277ZM128.708 86.0902C129.446 86.0902 130.111 85.9574 130.701 85.6916C131.321 85.3964 131.838 85.0126 132.251 84.5401C132.694 84.0677 133.019 83.551 133.226 82.9901C133.462 82.3995 133.58 81.809 133.58 81.2185C133.58 80.628 133.462 80.0375 133.226 79.447C133.019 78.8565 132.694 78.3398 132.251 77.8969C131.838 77.4245 131.321 77.0554 130.701 76.7897C130.111 76.4945 129.446 76.3468 128.708 76.3468H117.99V86.0902H128.708Z" fill="#35453B"/>
<path fill-rule="evenodd" clip-rule="evenodd" d="M14.9158 84.8601C13.5429 80.4241 12.8413 75.8028 12.8413 71.1471L46.0028 71.1471C46.0028 72.9929 46.3704 74.8207 47.0846 76.526C47.7988 78.2314 48.8457 79.7809 50.1654 81.0861C51.4851 82.3913 53.0518 83.4266 54.7761 84.133C56.5004 84.8394 58.3485 85.2029 60.2148 85.2029C62.0812 85.2029 63.9293 84.8394 65.6536 84.133C67.3778 83.4266 68.9446 82.3913 70.2643 81.0861C71.584 79.7809 72.6308 78.2314 73.3451 76.526C74.0593 74.8207 74.4269 72.9929 74.4269 71.1471L107.588 71.1471C107.588 75.8028 106.887 80.4241 105.514 84.8601C105.072 86.2865 104.562 87.6938 103.982 89.0769C101.602 94.7614 98.112 99.9264 93.713 104.277C89.3139 108.628 84.0915 112.079 78.3439 114.434C72.5963 116.788 66.436 118 60.2148 118C53.9937 118 47.8334 116.788 42.0858 114.434C36.3382 112.079 31.1157 108.628 26.7167 104.277C22.3177 99.9264 18.8281 94.7614 16.4474 89.0769C15.8681 87.6938 15.3573 86.2865 14.9158 84.8601Z" fill="#4F7D6F"/>
<path fill-rule="evenodd" clip-rule="evenodd" d="M118.274 20.8659C117.404 23.6589 116.959 26.5686 116.959 29.5L137.973 29.5C137.973 28.3378 138.206 27.187 138.659 26.1133C139.112 25.0395 139.775 24.0639 140.611 23.2421C141.448 22.4203 142.44 21.7684 143.533 21.3237C144.626 20.8789 145.797 20.65 146.98 20.65C148.162 20.65 149.333 20.8789 150.426 21.3237C151.519 21.7684 152.512 22.4203 153.348 23.2421C154.184 24.0639 154.848 25.0395 155.3 26.1133C155.753 27.187 155.986 28.3378 155.986 29.5L177 29.5C177 26.5686 176.556 23.6589 175.686 20.8659C175.406 19.9677 175.082 19.0817 174.715 18.2108C173.206 14.6317 170.995 11.3797 168.207 8.64035C165.42 5.90102 162.11 3.72807 158.468 2.24556C154.826 0.763042 150.922 1.48457e-06 146.98 1.31224e-06C143.037 1.13992e-06 139.133 0.763041 135.491 2.24555C131.849 3.72807 128.539 5.90102 125.752 8.64035C122.964 11.3797 120.753 14.6317 119.244 18.2108C118.877 19.0817 118.553 19.9677 118.274 20.8659Z" fill="#4F7D6F"/>
</svg>
