<svg width="25" height="30" viewBox="0 0 25 30" fill="none" xmlns="http://www.w3.org/2000/svg">
<path d="M6.31875 27.325H18.6812V22.7213C18.6812 20.9813 18.0823 19.5131 16.8844 18.3169C15.6864 17.1206 14.225 16.5225 12.5 16.5225C10.775 16.5225 9.31357 17.1206 8.11562 18.3169C6.91768 19.5131 6.31875 20.9813 6.31875 22.7213V27.325ZM12.5 13.4775C14.225 13.4775 15.6864 12.8734 16.8844 11.665C18.0823 10.4566 18.6812 8.9825 18.6812 7.2425V2.675H6.31875V7.2425C6.31875 8.9825 6.91768 10.4566 8.11562 11.665C9.31357 12.8734 10.775 13.4775 12.5 13.4775ZM2.07812 29.5C1.77266 29.5 1.51666 29.3951 1.31014 29.1854C1.10338 28.9758 1 28.7161 1 28.406C1 28.0962 1.10338 27.8385 1.31014 27.6331C1.51666 27.4277 1.77266 27.325 2.07812 27.325H4.1625V22.7213C4.1625 21.0054 4.64169 19.4466 5.6 18.045C6.55831 16.6434 7.82813 15.6284 9.40938 15C7.82813 14.3475 6.55831 13.3204 5.6 11.9188C4.64169 10.5171 4.1625 8.95836 4.1625 7.2425V2.675H2.07812C1.77266 2.675 1.51666 2.57011 1.31014 2.36035C1.10338 2.15083 1 1.89104 1 1.58098C1 1.27116 1.10338 1.01354 1.31014 0.808125C1.51666 0.602711 1.77266 0.5 2.07812 0.5H22.9219C23.2273 0.5 23.4834 0.604886 23.6902 0.81465C23.8967 1.02418 24 1.28396 24 1.59402C24 1.90384 23.8967 2.16146 23.6902 2.36687C23.4834 2.57229 23.2273 2.675 22.9219 2.675H20.8375V7.2425C20.8375 8.95836 20.3583 10.5171 19.4 11.9188C18.4417 13.3204 17.1719 14.3475 15.5906 15C17.1719 15.6284 18.4417 16.6434 19.4 18.045C20.3583 19.4466 20.8375 21.0054 20.8375 22.7213V27.325H22.9219C23.2273 27.325 23.4834 27.4299 23.6902 27.6397C23.8967 27.8492 24 28.1089 24 28.419C24 28.7288 23.8967 28.9865 23.6902 29.1919C23.4834 29.3973 23.2273 29.5 22.9219 29.5H2.07812Z" fill="#444444" stroke="#444444"/>
</svg>
