<svg width="32" height="32" viewBox="0 0 32 32" fill="none" xmlns="http://www.w3.org/2000/svg">
<path d="M1.5 16C1.5 17.9042 1.87505 19.7897 2.60375 21.5489C3.33244 23.3081 4.4005 24.9066 5.74695 26.253C7.0934 27.5995 8.69187 28.6676 10.4511 29.3963C12.2103 30.1249 14.0958 30.5 16 30.5C17.9042 30.5 19.7897 30.1249 21.5489 29.3963C23.3081 28.6676 24.9066 27.5995 26.253 26.253C27.5995 24.9066 28.6676 23.3081 29.3963 21.5489C30.1249 19.7897 30.5 17.9042 30.5 16C30.5 14.0958 30.1249 12.2103 29.3963 10.4511C28.6676 8.69187 27.5995 7.0934 26.253 5.74695C24.9066 4.4005 23.3081 3.33244 21.5489 2.60375C19.7897 1.87505 17.9042 1.5 16 1.5C14.0958 1.5 12.2103 1.87505 10.4511 2.60375C8.69187 3.33244 7.0934 4.4005 5.74695 5.74695C4.4005 7.0934 3.33244 8.69187 2.60375 10.4511C1.87505 12.2103 1.5 14.0958 1.5 16Z" stroke="#444444" stroke-width="3" stroke-linecap="round" stroke-linejoin="round"/>
<path d="M18.3591 6.33337H11.627V16H9.55554V18.1482H11.627V20.2963H9.55554V22.4445H11.627V25.6667H13.6984V22.4445H17.8413V20.2963H13.6984V18.1482H18.3591C21.5077 18.1482 24.0555 15.506 24.0555 12.2408C24.0555 8.9756 21.5077 6.33337 18.3591 6.33337ZM18.3591 16H13.6984V8.48152H18.3591C20.358 8.48152 21.9841 10.1678 21.9841 12.2408C21.9841 14.3137 20.358 16 18.3591 16Z" fill="#444444" stroke="#444444"/>
</svg>
