<svg width="40" height="39" viewBox="0 0 40 39" fill="none" xmlns="http://www.w3.org/2000/svg">
<path d="M4.09722 39C3.02141 39 2.10078 38.6184 1.33532 37.8553C0.569864 37.0922 0.186485 36.1738 0.185181 35.1V18.135C0.185181 17.355 0.397083 16.64 0.820887 15.99C1.24469 15.34 1.8315 14.8525 2.5813 14.5275L11.1389 10.92C11.7909 10.66 12.4103 10.7087 12.9971 11.0662C13.5839 11.4237 13.8773 11.96 13.8773 12.675V13.65L20.9679 10.8225C21.6199 10.5625 22.2308 10.6275 22.8007 11.0175C23.3705 11.4075 23.6561 11.9437 23.6574 12.6262V15.6H39.3056V35.1C39.3056 36.1725 38.9228 37.0909 38.1574 37.8553C37.3919 38.6197 36.4706 39.0013 35.3935 39H4.09722ZM17.7893 31.2H21.7014V23.4H17.7893V31.2ZM9.96527 31.2H13.8773V23.4H9.96527V31.2ZM25.6134 31.2H29.5255V23.4H25.6134V31.2ZM38.9143 12.675H29.8678L31.2859 1.70625C31.3511 1.21875 31.5715 0.8125 31.947 0.4875C32.3226 0.1625 32.7542 0 33.2419 0H35.638C36.127 0 36.5508 0.1625 36.9094 0.4875C37.268 0.8125 37.4799 1.21875 37.5451 1.70625L38.9143 12.675Z" fill="#444444"/>
</svg>
