<svg width="32" height="32" viewBox="0 0 32 32" fill="none" xmlns="http://www.w3.org/2000/svg">
<path d="M14.4536 17.7114L11.8283 14.944C11.6125 14.7013 11.3488 14.5799 11.0371 14.5799C10.7255 14.5799 10.4498 14.6891 10.21 14.9076C9.97024 15.1503 9.85034 15.4296 9.85034 15.7451C9.85034 16.0607 9.97024 16.3399 10.21 16.5826L13.6984 20.0782C13.9141 20.2967 14.1659 20.406 14.4536 20.406C14.7413 20.406 14.993 20.2967 15.2088 20.0782L21.79 13.4511C22.0058 13.2326 22.1137 12.9656 22.1137 12.65C22.1137 12.3345 21.9939 12.0674 21.7541 11.8489C21.5383 11.6547 21.2806 11.5637 20.9809 11.5758C20.6812 11.588 20.4354 11.6911 20.2436 11.8853L14.4536 17.7114ZM10.6775 30.4195L8.44779 26.5597L3.9884 25.6494C3.72467 25.6008 3.5029 25.4552 3.32309 25.2125C3.14327 24.9697 3.07734 24.7148 3.12529 24.4478L3.62877 20.0782L0.787703 16.7283C0.595899 16.534 0.5 16.2913 0.5 16C0.5 15.7087 0.595899 15.466 0.787703 15.2717L3.62877 11.9582L3.12529 7.58861C3.07734 7.32156 3.14327 7.06667 3.32309 6.82394C3.5029 6.58121 3.72467 6.43556 3.9884 6.38698L8.44779 5.47665L10.6775 1.58047C10.8213 1.33772 11.0252 1.16778 11.2889 1.07069C11.5526 0.973587 11.8164 0.98572 12.08 1.1071L16 2.96416L19.9199 1.1071C20.1837 0.98572 20.4475 0.967513 20.7111 1.05248C20.9749 1.13745 21.1786 1.3013 21.3225 1.54405L23.5882 5.47665L28.0116 6.38698C28.2754 6.43556 28.4971 6.58121 28.6769 6.82394C28.8567 7.06667 28.9227 7.32156 28.8747 7.58861L28.3712 11.9582L31.2123 15.2717C31.4041 15.466 31.5 15.7087 31.5 16C31.5 16.2913 31.4041 16.534 31.2123 16.7283L28.3712 20.0782L28.8747 24.4478C28.9227 24.7148 28.8567 24.9697 28.6769 25.2125C28.4971 25.4552 28.2754 25.6008 28.0116 25.6494L23.5882 26.5597L21.3225 30.4559C21.1786 30.6987 20.9749 30.8625 20.7111 30.9475C20.4475 31.0325 20.1837 31.0143 19.9199 30.8929L16 29.0358L12.08 30.8929C11.8164 31.0143 11.5526 31.0264 11.2889 30.9293C11.0252 30.8322 10.8213 30.6622 10.6775 30.4195ZM12.152 28.4168L16 26.7782L19.9559 28.4168L22.3654 24.7755L26.5731 23.6831L26.1415 19.35L29.0545 16L26.1415 12.5772L26.5731 8.24404L22.3654 7.22448L19.884 3.58318L16 5.22176L12.0441 3.58318L9.63456 7.22448L5.42692 8.24404L5.85847 12.5772L2.94548 16L5.85847 19.35L5.42692 23.7559L9.63456 24.7755L12.152 28.4168Z" fill="#444444" stroke="#444444"/>
</svg>
