<svg width="33" height="33" viewBox="0 0 33 33" fill="none" xmlns="http://www.w3.org/2000/svg">
<path d="M2 16.5C2 18.4042 2.37505 20.2897 3.10375 22.0489C3.83244 23.8081 4.9005 25.4066 6.24695 26.753C7.5934 28.0995 9.19187 29.1676 10.9511 29.8963C12.7103 30.6249 14.5958 31 16.5 31C18.4042 31 20.2897 30.6249 22.0489 29.8963C23.8081 29.1676 25.4066 28.0995 26.753 26.753C28.0995 25.4066 29.1676 23.8081 29.8963 22.0489C30.6249 20.2897 31 18.4042 31 16.5C31 14.5958 30.6249 12.7103 29.8963 10.9511C29.1676 9.19187 28.0995 7.5934 26.753 6.24695C25.4066 4.9005 23.8081 3.83244 22.0489 3.10375C20.2897 2.37505 18.4042 2 16.5 2C14.5958 2 12.7103 2.37505 10.9511 3.10375C9.19187 3.83244 7.5934 4.9005 6.24695 6.24695C4.9005 7.5934 3.83244 9.19187 3.10375 10.9511C2.37505 12.7103 2 14.5958 2 16.5Z" stroke="#444444" stroke-width="3" stroke-linecap="round" stroke-linejoin="round"/>
<path d="M18.8592 6.83337H12.1271V16.5H10.0557V18.6482H12.1271V20.7963H10.0557V22.9445H12.1271V26.1667H14.1985V22.9445H18.3414V20.7963H14.1985V18.6482H18.8592C22.0078 18.6482 24.5557 16.006 24.5557 12.7408C24.5557 9.4756 22.0078 6.83337 18.8592 6.83337ZM18.8592 16.5H14.1985V8.98152H18.8592C20.8582 8.98152 22.4842 10.6678 22.4842 12.7408C22.4842 14.8137 20.8582 16.5 18.8592 16.5Z" fill="#444444" stroke="#444444"/>
</svg>
