<svg width="61" height="61" viewBox="0 0 61 61" fill="none" xmlns="http://www.w3.org/2000/svg">
<path d="M15.75 46.3972C16.4056 46.3972 16.9792 46.1514 17.4708 45.6597C17.9625 45.1681 18.2083 44.5944 18.2083 43.9389C18.2083 43.2833 17.9625 42.7097 17.4708 42.2181C16.9792 41.7264 16.4056 41.4806 15.75 41.4806C15.0944 41.4806 14.5208 41.7264 14.0292 42.2181C13.5375 42.7097 13.2917 43.2833 13.2917 43.9389C13.2917 44.5944 13.5375 45.1681 14.0292 45.6597C14.5208 46.1514 15.0944 46.3972 15.75 46.3972ZM15.75 32.9583C16.4056 32.9583 16.9792 32.7125 17.4708 32.2208C17.9625 31.7292 18.2083 31.1556 18.2083 30.5C18.2083 29.8444 17.9625 29.2708 17.4708 28.7792C16.9792 28.2875 16.4056 28.0417 15.75 28.0417C15.0944 28.0417 14.5208 28.2875 14.0292 28.7792C13.5375 29.2708 13.2917 29.8444 13.2917 30.5C13.2917 31.1556 13.5375 31.7292 14.0292 32.2208C14.5208 32.7125 15.0944 32.9583 15.75 32.9583ZM15.75 19.5194C16.4056 19.5194 16.9792 19.2736 17.4708 18.7819C17.9625 18.2903 18.2083 17.7167 18.2083 17.0611C18.2083 16.4056 17.9625 15.8319 17.4708 15.3403C16.9792 14.8486 16.4056 14.6028 15.75 14.6028C15.0944 14.6028 14.5208 14.8486 14.0292 15.3403C13.5375 15.8319 13.2917 16.4056 13.2917 17.0611C13.2917 17.7167 13.5375 18.2903 14.0292 18.7819C14.5208 19.2736 15.0944 19.5194 15.75 19.5194ZM29.025 46.3972H44.1028C44.7993 46.3972 45.3832 46.1601 45.8547 45.6859C46.3256 45.2123 46.5611 44.6251 46.5611 43.9241C46.5611 43.2238 46.3256 42.6414 45.8547 42.1771C45.3832 41.7128 44.7993 41.4806 44.1028 41.4806H29.025C28.3285 41.4806 27.7447 41.7177 27.2738 42.1918C26.8023 42.6655 26.5667 43.2527 26.5667 43.9536C26.5667 44.6539 26.8023 45.2364 27.2738 45.7007C27.7447 46.165 28.3285 46.3972 29.025 46.3972ZM29.025 32.9583H44.1028C44.7993 32.9583 45.3832 32.7212 45.8547 32.2471C46.3256 31.7734 46.5611 31.1862 46.5611 30.4852C46.5611 29.785 46.3256 29.2025 45.8547 28.7382C45.3832 28.2739 44.7993 28.0417 44.1028 28.0417H29.025C28.3285 28.0417 27.7447 28.2788 27.2738 28.7529C26.8023 29.2266 26.5667 29.8138 26.5667 30.5147C26.5667 31.215 26.8023 31.7975 27.2738 32.2618C27.7447 32.7261 28.3285 32.9583 29.025 32.9583ZM29.025 19.5194H44.1028C44.7993 19.5194 45.3832 19.2823 45.8547 18.8082C46.3256 18.3345 46.5611 17.7473 46.5611 17.0464C46.5611 16.3461 46.3256 15.7636 45.8547 15.2993C45.3832 14.835 44.7993 14.6028 44.1028 14.6028H29.025C28.3285 14.6028 27.7447 14.8399 27.2738 15.3141C26.8023 15.7877 26.5667 16.3749 26.5667 17.0759C26.5667 17.7762 26.8023 18.3586 27.2738 18.8229C27.7447 19.2872 28.3285 19.5194 29.025 19.5194ZM5.91667 60C4.60556 60 3.45833 59.5083 2.475 58.525C1.49167 57.5417 1 56.3944 1 55.0833V5.91667C1 4.60556 1.49167 3.45833 2.475 2.475C3.45833 1.49167 4.60556 1 5.91667 1H55.0833C56.3944 1 57.5417 1.49167 58.525 2.475C59.5083 3.45833 60 4.60556 60 5.91667V55.0833C60 56.3944 59.5083 57.5417 58.525 58.525C57.5417 59.5083 56.3944 60 55.0833 60H5.91667ZM5.91667 55.0833H55.0833V5.91667H5.91667V55.0833Z" fill="white" stroke="white"/>
</svg>
