<svg width="62" height="62" viewBox="0 0 62 62" fill="none" xmlns="http://www.w3.org/2000/svg">
<path d="M4.7275 28.675H15.345C14.9834 26.195 14.26 23.8571 13.175 21.6612C12.09 19.4654 10.7466 17.5666 9.145 15.965C7.95666 17.7734 6.94916 19.7366 6.1225 21.855C5.29584 23.9734 4.83084 26.2466 4.7275 28.675ZM46.655 28.675H57.2725C57.1691 26.2466 56.7041 23.9734 55.8775 21.855C55.0509 19.7366 54.0434 17.7734 52.855 15.965C51.0984 17.7216 49.7162 19.6591 48.7087 21.7775C47.7012 23.8959 47.0166 26.195 46.655 28.675ZM9.145 45.9575C10.9016 44.2009 12.2837 42.2762 13.2912 40.1837C14.2987 38.0912 14.9834 35.805 15.345 33.325H4.7275C4.83084 35.7534 5.29584 38.0137 6.1225 40.1062C6.94916 42.1987 7.95666 44.1491 9.145 45.9575ZM52.855 45.9575C54.0434 44.1491 55.0509 42.1987 55.8775 40.1062C56.7041 38.0137 57.1691 35.7534 57.2725 33.325H46.655C47.0166 35.805 47.7012 38.0912 48.7087 40.1837C49.7162 42.2762 51.0984 44.2009 52.855 45.9575ZM20.0725 28.675H28.675V4.7275C25.4716 5.08916 22.4879 5.91584 19.7237 7.2075C16.9596 8.49916 14.4666 10.23 12.245 12.4C14.3634 14.5184 16.0941 16.9725 17.4375 19.7625C18.7809 22.5525 19.6591 25.5234 20.0725 28.675ZM33.325 28.675H41.9275C42.3409 25.5234 43.2321 22.5525 44.6012 19.7625C45.9704 16.9725 47.7141 14.5184 49.8325 12.4C47.6109 10.23 45.105 8.49916 42.315 7.2075C39.525 5.91584 36.5284 5.08916 33.325 4.7275V28.675ZM28.675 57.2725V33.325H20.0725C19.6591 36.4766 18.7809 39.4346 17.4375 42.1987C16.0941 44.9629 14.3634 47.4041 12.245 49.5225C14.4666 51.6925 16.895 53.4362 19.53 54.7537C22.165 56.0713 25.2134 56.9109 28.675 57.2725ZM33.325 57.2725C36.7866 56.9109 39.8479 56.0713 42.5087 54.7537C45.1696 53.4362 47.6109 51.6925 49.8325 49.5225C47.7141 47.4041 45.9704 44.9629 44.6012 42.1987C43.2321 39.4346 42.3409 36.4766 41.9275 33.325H33.325V57.2725ZM31 62C26.7116 62 22.6816 61.1862 18.91 59.5587C15.1384 57.9312 11.8575 55.7225 9.0675 52.9325C6.2775 50.1425 4.06875 46.8616 2.44125 43.09C0.81375 39.3184 0 35.2884 0 31C0 26.7116 0.81375 22.6816 2.44125 18.91C4.06875 15.1384 6.2775 11.8575 9.0675 9.0675C11.8575 6.2775 15.1384 4.06875 18.91 2.44125C22.6816 0.81375 26.7116 0 31 0C35.2884 0 39.3184 0.81375 43.09 2.44125C46.8616 4.06875 50.1425 6.2775 52.9325 9.0675C55.7225 11.8575 57.9312 15.1384 59.5587 18.91C61.1862 22.6816 62 26.7116 62 31C62 35.2884 61.1862 39.3184 59.5587 43.09C57.9312 46.8616 55.7225 50.1425 52.9325 52.9325C50.1425 55.7225 46.8616 57.9312 43.09 59.5587C39.3184 61.1862 35.2884 62 31 62Z" fill="white"/>
</svg>
