<svg width="68" height="61" viewBox="0 0 68 61" fill="none" xmlns="http://www.w3.org/2000/svg">
<path d="M5.95 60C4.63 60 3.475 59.5083 2.485 58.525C1.495 57.5417 1 56.3944 1 55.0833V5.91667C1 4.60556 1.495 3.45833 2.485 2.475C3.475 1.49167 4.63 1 5.95 1H62.05C63.37 1 64.525 1.49167 65.515 2.475C66.505 3.45833 67 4.60556 67 5.91667V55.0833C67 56.3944 66.505 57.5417 65.515 58.525C64.525 59.5083 63.37 60 62.05 60H5.95ZM5.95 55.0833H62.05V5.91667H5.95V55.0833ZM17.4175 46.3972H50.5825C51.2837 46.3972 51.8716 46.1601 52.3463 45.6859C52.8204 45.2123 53.0575 44.6251 53.0575 43.9241C53.0575 43.2238 52.8204 42.6414 52.3463 42.1771C51.8716 41.7128 51.2837 41.4806 50.5825 41.4806H17.4175C16.7162 41.4806 16.1285 41.7177 15.6545 42.1918C15.1798 42.6655 14.9425 43.2527 14.9425 43.9536C14.9425 44.6539 15.1798 45.2364 15.6545 45.7007C16.1285 46.165 16.7162 46.3972 17.4175 46.3972ZM17.4175 32.7944H25.255C25.9563 32.7944 26.5441 32.5588 27.0188 32.0873C27.4929 31.6164 27.73 31.0326 27.73 30.3361V17.0611C27.73 16.3646 27.4929 15.7806 27.0188 15.3091C26.5441 14.8383 25.9563 14.6028 25.255 14.6028H17.4175C16.7162 14.6028 16.1285 14.8383 15.6545 15.3091C15.1798 15.7806 14.9425 16.3646 14.9425 17.0611V30.3361C14.9425 31.0326 15.1798 31.6164 15.6545 32.0873C16.1285 32.5588 16.7162 32.7944 17.4175 32.7944ZM38.785 32.7944H50.5825C51.2837 32.7944 51.8716 32.5573 52.3463 32.0832C52.8204 31.6095 53.0575 31.0223 53.0575 30.3214C53.0575 29.6211 52.8204 29.0386 52.3463 28.5743C51.8716 28.11 51.2837 27.8778 50.5825 27.8778H38.785C38.0837 27.8778 37.496 28.1149 37.022 28.5891C36.5473 29.0627 36.31 29.6499 36.31 30.3509C36.31 31.0512 36.5473 31.6336 37.022 32.0979C37.496 32.5622 38.0837 32.7944 38.785 32.7944ZM38.785 19.5194H50.5825C51.2837 19.5194 51.8716 19.2823 52.3463 18.8082C52.8204 18.3345 53.0575 17.7473 53.0575 17.0464C53.0575 16.3461 52.8204 15.7636 52.3463 15.2993C51.8716 14.835 51.2837 14.6028 50.5825 14.6028H38.785C38.0837 14.6028 37.496 14.8399 37.022 15.3141C36.5473 15.7877 36.31 16.3749 36.31 17.0759C36.31 17.7762 36.5473 18.3586 37.022 18.8229C37.496 19.2872 38.0837 19.5194 38.785 19.5194Z" fill="white" stroke="white"/>
</svg>
