<svg width="45" height="45" viewBox="0 0 45 45" fill="none" xmlns="http://www.w3.org/2000/svg">
<path d="M3.43125 20.8125H11.1375C10.875 19.0125 10.35 17.3157 9.5625 15.7219C8.775 14.1281 7.79996 12.75 6.6375 11.5875C5.775 12.9 5.04375 14.325 4.44375 15.8625C3.84375 17.4 3.50625 19.05 3.43125 20.8125ZM33.8625 20.8125H41.5688C41.4937 19.05 41.1562 17.4 40.5562 15.8625C39.9563 14.325 39.225 12.9 38.3625 11.5875C37.0875 12.8625 36.0844 14.2687 35.3531 15.8062C34.6219 17.3438 34.125 19.0125 33.8625 20.8125ZM6.6375 33.3563C7.91246 32.0813 8.91562 30.6844 9.64687 29.1656C10.3781 27.6469 10.875 25.9875 11.1375 24.1875H3.43125C3.50625 25.95 3.84375 27.5906 4.44375 29.1094C5.04375 30.6281 5.775 32.0437 6.6375 33.3563ZM38.3625 33.3563C39.225 32.0437 39.9563 30.6281 40.5562 29.1094C41.1562 27.5906 41.4937 25.95 41.5688 24.1875H33.8625C34.125 25.9875 34.6219 27.6469 35.3531 29.1656C36.0844 30.6844 37.0875 32.0813 38.3625 33.3563ZM14.5688 20.8125H20.8125V3.43125C18.4875 3.69375 16.3218 4.29375 14.3156 5.23125C12.3094 6.16875 10.5 7.425 8.8875 9C10.425 10.5375 11.6812 12.3188 12.6562 14.3438C13.6313 16.3687 14.2687 18.525 14.5688 20.8125ZM24.1875 20.8125H30.4312C30.7313 18.525 31.3782 16.3687 32.3719 14.3438C33.3656 12.3188 34.6312 10.5375 36.1688 9C34.5563 7.425 32.7375 6.16875 30.7125 5.23125C28.6875 4.29375 26.5125 3.69375 24.1875 3.43125V20.8125ZM20.8125 41.5688V24.1875H14.5688C14.2687 26.475 13.6313 28.6219 12.6562 30.6281C11.6812 32.6343 10.425 34.4062 8.8875 35.9438C10.5 37.5187 12.2625 38.7844 14.175 39.7406C16.0875 40.6969 18.3 41.3063 20.8125 41.5688ZM24.1875 41.5688C26.7 41.3063 28.9218 40.6969 30.8531 39.7406C32.7844 38.7844 34.5563 37.5187 36.1688 35.9438C34.6312 34.4062 33.3656 32.6343 32.3719 30.6281C31.3782 28.6219 30.7313 26.475 30.4312 24.1875H24.1875V41.5688ZM22.5 45C19.3875 45 16.4625 44.4094 13.725 43.2281C10.9875 42.0469 8.60625 40.4438 6.58125 38.4188C4.55625 36.3938 2.95312 34.0125 1.77187 31.275C0.590625 28.5375 0 25.6125 0 22.5C0 19.3875 0.590625 16.4625 1.77187 13.725C2.95312 10.9875 4.55625 8.60625 6.58125 6.58125C8.60625 4.55625 10.9875 2.95312 13.725 1.77187C16.4625 0.590625 19.3875 0 22.5 0C25.6125 0 28.5375 0.590625 31.275 1.77187C34.0125 2.95312 36.3938 4.55625 38.4188 6.58125C40.4438 8.60625 42.0469 10.9875 43.2281 13.725C44.4094 16.4625 45 19.3875 45 22.5C45 25.6125 44.4094 28.5375 43.2281 31.275C42.0469 34.0125 40.4438 36.3938 38.4188 38.4188C36.3938 40.4438 34.0125 42.0469 31.275 43.2281C28.5375 44.4094 25.6125 45 22.5 45Z" fill="black"/>
</svg>
