<svg width="59" height="59" viewBox="0 0 59 59" fill="none" xmlns="http://www.w3.org/2000/svg">
<path d="M29.6195 48.7487C33.3257 48.7487 36.8996 48.1465 40.3413 46.9419C43.7829 45.7372 46.905 43.955 49.7075 41.595C50.2484 41.1397 50.5434 40.5834 50.5925 39.926C50.6416 39.2686 50.4204 38.7434 49.9287 38.35C49.4371 37.9566 48.8963 37.76 48.3063 37.76C47.7163 37.76 47.1509 37.9566 46.61 38.35C46.2659 38.5959 45.934 38.8171 45.6144 39.0138C45.2947 39.2104 44.9629 39.4071 44.6188 39.6038L41.595 33.9987V26.4025H43.8813C44.2156 26.4025 44.5081 26.2761 44.7589 26.0234C45.0096 25.7702 45.135 25.4752 45.135 25.1384C45.135 24.8011 45.0096 24.5096 44.7589 24.2638C44.5081 24.0179 44.2156 23.895 43.8813 23.895H27.3612L22.3463 15.2663C22.1638 14.9344 21.899 14.667 21.552 14.4639C21.2049 14.2613 20.8304 14.16 20.4288 14.16H14.0125C13.7666 14.16 13.5946 14.2953 13.4962 14.5656C13.3979 14.836 13.4716 15.045 13.7175 15.1925L14.8975 16.0038L10.9887 20.1337C10.6446 20.4848 10.4725 20.8904 10.4725 21.3506C10.4725 21.8108 10.6446 22.2164 10.9887 22.5675L11.2837 22.8625C11.588 23.1683 11.9471 23.3431 12.3605 23.3869C12.7735 23.4307 13.1766 23.3296 13.57 23.0837L17.405 20.4288V33.9987L14.455 39.6038C14.0616 39.4071 13.6806 39.1859 13.3119 38.94C12.9431 38.6941 12.5866 38.4484 12.2425 38.2025C11.7509 37.8091 11.21 37.6371 10.62 37.6862C10.03 37.7354 9.51523 37.9451 9.07568 38.3153C8.58106 38.7317 8.34604 39.2567 8.37063 39.8899C8.39521 40.5231 8.65334 41.0423 9.145 41.4475C12.0459 43.8566 15.2437 45.6759 18.7384 46.905C22.2327 48.1341 25.8597 48.7487 29.6195 48.7487ZM29.6844 44.3975C27.6931 44.3975 25.665 44.1885 23.6 43.7706C21.535 43.3528 19.47 42.5784 17.405 41.4475L20.7975 35.8425C22.3216 36.4325 23.801 36.875 25.2358 37.17C26.6699 37.465 28.0914 37.6125 29.5 37.6125C30.9259 37.6125 32.3516 37.465 33.7775 37.17C35.2034 36.875 36.6784 36.4325 38.2025 35.8425L41.595 41.4475C39.53 42.5291 37.5265 43.2913 35.5844 43.7338C33.6422 44.1763 31.6756 44.3975 29.6844 44.3975ZM4.425 59C3.245 59 2.2125 58.5575 1.3275 57.6725C0.4425 56.7875 0 55.755 0 54.575V4.425C0 3.245 0.4425 2.2125 1.3275 1.3275C2.2125 0.4425 3.245 0 4.425 0H54.575C55.755 0 56.7875 0.4425 57.6725 1.3275C58.5575 2.2125 59 3.245 59 4.425V54.575C59 55.755 58.5575 56.7875 57.6725 57.6725C56.7875 58.5575 55.755 59 54.575 59H4.425ZM4.425 54.575H54.575V4.425H4.425V54.575Z" fill="white"/>
</svg>
