<svg width="57" height="57" viewBox="0 0 57 57" fill="none" xmlns="http://www.w3.org/2000/svg">
<path d="M28.7186 42.25C29.3062 42.25 29.7948 42.0523 30.1844 41.6567C30.5739 41.2617 30.7687 40.7719 30.7687 40.1875V27.8125C30.7687 27.2281 30.5698 26.7382 30.172 26.3426C29.7746 25.9476 29.282 25.75 28.6939 25.75C28.1063 25.75 27.6177 25.9476 27.2281 26.3426C26.8386 26.7382 26.6437 27.2281 26.6437 27.8125V40.1875C26.6437 40.7719 26.8427 41.2617 27.2405 41.6567C27.6379 42.0523 28.1305 42.25 28.7186 42.25ZM28.4986 20.6625C29.1412 20.6625 29.6802 20.4517 30.1156 20.03C30.5511 19.6083 30.7687 19.0858 30.7687 18.4625C30.7687 17.8002 30.5515 17.2452 30.117 16.7974C29.6825 16.3491 29.1439 16.125 28.5014 16.125C27.8588 16.125 27.3198 16.3491 26.8844 16.7974C26.4489 17.2452 26.2313 17.8002 26.2313 18.4625C26.2313 19.0858 26.4485 19.6083 26.883 20.03C27.3175 20.4517 27.8561 20.6625 28.4986 20.6625ZM28.5186 56C24.7263 56 21.1627 55.2781 17.8279 53.8344C14.4926 52.3906 11.5761 50.4198 9.07812 47.9219C6.5802 45.4239 4.60937 42.5057 3.16562 39.1672C1.72187 35.8288 1 32.2616 1 28.4656C1 24.6697 1.72187 21.1025 3.16562 17.764C4.60937 14.4255 6.5802 11.5188 9.07812 9.04375C11.5761 6.56875 14.4943 4.60937 17.8328 3.16562C21.1713 1.72187 24.7384 1 28.5344 1C32.3303 1 35.8975 1.72187 39.236 3.16562C42.5745 4.60937 45.4813 6.56875 47.9563 9.04375C50.4313 11.5188 52.3906 14.4292 53.8344 17.775C55.2781 21.1208 56 24.6896 56 28.4814C56 32.2737 55.2781 35.8373 53.8344 39.1721C52.3906 42.5074 50.4313 45.4198 47.9563 47.9095C45.4813 50.3987 42.5708 52.3696 39.225 53.822C35.8792 55.274 32.3104 56 28.5186 56ZM28.5344 51.875C35.0198 51.875 40.5312 49.5948 45.0687 45.0344C49.6063 40.4739 51.875 34.9511 51.875 28.4656C51.875 21.9802 49.6107 16.4688 45.0818 11.9312C40.553 7.39375 35.0257 5.125 28.5 5.125C22.0375 5.125 16.5261 7.38939 11.9656 11.9182C7.4052 16.447 5.125 21.9743 5.125 28.5C5.125 34.9625 7.4052 40.4739 11.9656 45.0344C16.5261 49.5948 22.0489 51.875 28.5344 51.875Z" fill="white" stroke="white" stroke-width="2"/>
</svg>
